<svg xmlns="http://www.w3.org/2000/svg" viewBox="0 0 64 64" fill="none">
  <defs>
    <linearGradient id="grad" x1="0%" y1="0%" x2="100%" y2="100%">
      <stop offset="0%" style="stop-color:#8b5cf6;stop-opacity:1" />
      <stop offset="50%" style="stop-color:#3b82f6;stop-opacity:1" />
      <stop offset="100%" style="stop-color:#06b6d4;stop-opacity:1" />
    </linearGradient>
  </defs>
  <!-- Rounded square background -->
  <rect width="64" height="64" rx="12" fill="url(#grad)"/>
  <!-- Phone icon -->
  <path d="M 20 18 C 19 18 18 19 18 20 L 18 44 C 18 45 19 46 20 46 L 44 46 C 45 46 46 45 46 44 L 46 20 C 46 19 45 18 44 18 L 20 18 Z M 24 22 L 28 22 C 28.5 22 29 22.5 29 23 C 29 23.5 28.5 24 28 24 L 24 24 C 23.5 24 23 23.5 23 23 C 23 22.5 23.5 22 24 22 Z M 32 26 C 35.3 26 38 28.7 38 32 C 38 35.3 35.3 38 32 38 C 28.7 38 26 35.3 26 32 C 26 28.7 28.7 26 32 26 Z M 32 28 C 29.8 28 28 29.8 28 32 C 28 34.2 29.8 36 32 36 C 34.2 36 36 34.2 36 32 C 36 29.8 34.2 28 32 28 Z M 32 30 C 33.1 30 34 30.9 34 32 C 34 33.1 33.1 34 32 34 C 30.9 34 30 33.1 30 32 C 30 30.9 30.9 30 32 30 Z M 24 40 L 28 40 C 28.5 40 29 40.5 29 41 C 29 41.5 28.5 42 28 42 L 24 42 C 23.5 42 23 41.5 23 41 C 23 40.5 23.5 40 24 40 Z" fill="white"/>
  <!-- Clock/time indicator (small) -->
  <circle cx="48" cy="16" r="8" fill="white"/>
  <path d="M 48 12 L 48 16 L 51 18" stroke="url(#grad)" stroke-width="1.5" stroke-linecap="round" fill="none"/>
</svg>
